<svg xmlns="http://www.w3.org/2000/svg" width="110" height="110" fill="none"><circle cx="55" cy="55" r="55" fill="#F2F2F2"/><g fill="#000" clip-path="url(#a)"><path d="M55.53 32.98a5.33 5.33 0 0 1-5.28-5.47A5.36 5.36 0 0 1 55.49 22a5.39 5.39 0 0 1 5.28 5.45 5.36 5.36 0 0 1-5.24 5.53ZM45.02 43.64c-.02-.9-.06-1.8.04-2.71a6.36 6.36 0 0 1 6.27-5.81h8.3c.33 0 .65.02.98.06a6.46 6.46 0 0 1 5.26 5.24c.19 1.07.1 2.15.11 3.23v1.36h-21v-1.36h.04Z"/></g><path fill="#000" d="M39.31 53.82h7c.6 0 1.08.05 1.46.15.39.1.7.24.92.42.23.17.39.38.48.6.1.22.14.45.14.7v.15a1.56 1.56 0 0 1-.5 1.15c-.14.13-.28.23-.44.3-.14.07-.26.12-.36.15.14.03.3.1.5.18.21.08.4.2.59.37a1.87 1.87 0 0 1 .67 1.5v.16c0 .32-.05.62-.15.9-.1.3-.29.54-.55.76-.26.21-.6.38-1.05.5-.43.13-.98.19-1.64.19h-7.07v-8.18Zm2.56 1.72v1.33h4c.18 0 .33-.01.45-.05.11-.04.2-.09.27-.14a.5.5 0 0 0 .13-.22.7.7 0 0 0 .05-.25v-.02a.64.64 0 0 0-.05-.24.43.43 0 0 0-.13-.2.74.74 0 0 0-.27-.15 1.5 1.5 0 0 0-.44-.06h-4Zm0 3.07v1.6h4.23c.21 0 .38-.02.51-.07a.8.8 0 0 0 .31-.2.59.59 0 0 0 .15-.26.9.9 0 0 0 .04-.27v-.04a.83.83 0 0 0-.04-.26.46.46 0 0 0-.15-.24.77.77 0 0 0-.3-.18c-.14-.05-.31-.08-.52-.08h-4.23ZM56.5 53.67c.85 0 1.6.07 2.2.2.62.13 1.14.3 1.57.53a3.5 3.5 0 0 1 1.98 3.32v.33c0 .24-.02.51-.07.8a3.42 3.42 0 0 1-1.9 2.56c-.42.22-.95.4-1.57.54-.62.13-1.36.2-2.21.2h-.48c-.86 0-1.6-.07-2.23-.2a6.57 6.57 0 0 1-1.56-.54 3.58 3.58 0 0 1-1.9-2.55c-.05-.3-.07-.57-.07-.8v-.34c0-.24.02-.5.07-.8a3.4 3.4 0 0 1 1.9-2.52c.42-.22.94-.4 1.56-.53.62-.13 1.37-.2 2.23-.2h.48Zm3.07 4.13c0-.24-.05-.48-.14-.73a1.5 1.5 0 0 0-.48-.7 2.72 2.72 0 0 0-1.01-.5c-.44-.15-1-.22-1.69-.22-.7 0-1.27.07-1.7.21-.43.13-.77.3-1.01.52-.24.2-.4.44-.48.7-.08.24-.12.48-.12.72v.13c0 .23.04.48.12.75.1.25.26.5.5.71.24.22.58.4 1.01.55.43.14 1 .21 1.68.21a5.5 5.5 0 0 0 1.68-.2c.43-.15.77-.32 1-.54.25-.21.42-.45.5-.71.1-.26.14-.51.14-.75v-.15ZM65.74 58.83l-4.38-5.01h3.18l2.54 3.01 2.59-3.01h2.9l-4.26 5.01V62h-2.57v-3.17ZM35.44 66.82v1.86h-5.9v1.2h5.76v1.88h-5.76V75h-2.56v-8.18h8.46ZM39.09 70.28h3.88c.37 0 .63-.08.8-.23a.76.76 0 0 0 .23-.57v-.01c0-.22-.08-.4-.24-.55-.15-.16-.42-.25-.8-.25H39.1v1.61Zm0 4.72h-2.57v-8.18h6.6c.68 0 1.25.05 1.7.16.46.11.83.27 1.1.46.28.2.47.42.58.67.12.26.18.54.18.83v.13c0 .3-.06.54-.17.75a1.78 1.78 0 0 1-.89.86 4.7 4.7 0 0 1-.46.18c.2.06.4.14.6.25.18.1.35.23.49.4a1.77 1.77 0 0 1 .46 1.24v1.2c0 .32.01.56.04.7l.11.3V75h-2.6a.63.63 0 0 1-.1-.19 1.23 1.23 0 0 1-.03-.33v-.94c0-.5-.12-.86-.38-1.1-.25-.23-.69-.34-1.32-.34h-3.34V75ZM50.28 75h-2.56v-8.18h2.56V75ZM60.15 66.82v1.86h-6.1v1.2h5.96v1.88h-5.95v1.34h6.2V75h-8.73v-8.18h8.62ZM64.19 66.82l5.22 5.14v-5.14h2.53V75h-2.53l-5.55-5.42V75h-2.53v-8.18h2.86ZM73.2 66.82h5.42c.8 0 1.48.05 2.07.16.6.1 1.1.25 1.53.43.43.18.78.4 1.06.65s.5.52.66.81c.17.29.29.59.36.9.06.3.1.61.1.92v.33c0 .3-.04.6-.1.91-.06.3-.17.61-.33.9-.17.3-.39.58-.66.84-.28.26-.64.5-1.06.7-.43.19-.94.35-1.53.46-.6.11-1.29.17-2.09.17H73.2v-8.18Zm2.56 6.21h2.66c.73 0 1.3-.07 1.74-.2.43-.15.76-.33.99-.54.23-.2.38-.44.45-.68.07-.25.11-.48.11-.7v-.06c0-.2-.03-.43-.1-.67a1.47 1.47 0 0 0-.44-.7 2.6 2.6 0 0 0-1-.52 5.9 5.9 0 0 0-1.75-.2h-2.66v4.27ZM52.79 79.82v1.86h-5.91v1.2h5.76v1.88h-5.76V88h-2.55v-8.18h8.46ZM56.43 88h-2.56v-8.18h2.56V88ZM60.88 81.75h-3.52v-1.93H67v1.93h-3.53V88h-2.59v-6.25Z"/><defs><clipPath id="a"><path fill="#fff" d="M66 22H45v23h21z"/></clipPath></defs></svg>