<svg xmlns="http://www.w3.org/2000/svg" width="14" height="14" fill="none"><g opacity=".3"><mask id="a" fill="#fff"><path d="M14 14H0V6l7-6 7 6v8Z"/></mask><path fill="#000" d="M5 11a.5.5 0 0 0 1 0H5Zm.5-2.5V8H5v.5h.5Zm3 0H9V8h-.5v.5ZM8 11a.5.5 0 0 0 1 0H8Zm-2 0V8.5H5V11h1Zm-.5-2h3V8h-3v1ZM8 8.5V11h1V8.5H8ZM0 14h-1v1h1v-1Zm14 0v1h1v-1h-1Zm0-8h1v-.46l-.35-.3L14 6ZM7 0l.65-.76L7-1.32l-.65.56L7 0ZM0 6l-.65-.76-.35.3V6h1Zm0 9h14v-2H0v2Zm15-1V6h-2v8h2Zm-.35-8.76-7-6L6.35.76l7 6 1.3-1.52Zm-8.3-6-7 6 1.3 1.52 7-6-1.3-1.52ZM-1 6v6.5h2V6h-2Zm0 6.5V14h2v-1.5h-2Z" mask="url(#a)"/></g></svg>