<svg xmlns="http://www.w3.org/2000/svg" width="110" height="110" fill="none"><circle cx="55" cy="55" r="55" fill="#F2F2F2"/><g fill="#000" clip-path="url(#a)"><path d="M55.5 33a5.3 5.3 0 0 1-5.3-5.5c0-3.2 2.5-5.5 5.3-5.5 2.9 0 5.3 2.5 5.3 5.5 0 3.2-2.6 5.5-5.3 5.5ZM45 43.6V41c.4-3.3 3-5.8 6.3-5.8h9.3c2.6.5 4.8 2.6 5.3 5.3.2 1 0 2.2 0 3.2V45H45v-1.4h.1Z"/></g><path fill="#000" d="M39.3 53.8h7c.6 0 1 0 1.5.2.4 0 .7.2.9.4l.5.6.1.7v.1l-.1.7-.4.5-.4.3-.4.1.5.2.6.4.5.6.2.9v.1c0 .4 0 .7-.2 1 0 .2-.3.5-.5.7l-1 .5a6 6 0 0 1-1.7.2h-7v-8.2Zm2.6 1.7V57h4.4l.3-.2.1-.2v-.6l-.1-.2-.3-.1H42Zm0 3.1v1.6h4.7l.3-.3.2-.2V59l-.2-.2-.3-.2H42ZM56.5 53.7c.9 0 1.6 0 2.2.2l1.6.5a3.5 3.5 0 0 1 2 3.3v.4l-.1.8a3.4 3.4 0 0 1-2 2.5l-1.5.5c-.6.2-1.3.2-2.2.2H56c-.8 0-1.6 0-2.2-.2-.6 0-1.1-.3-1.6-.5l-1-.8a3.6 3.6 0 0 1-.9-1.7v-2l.3-.9a3.4 3.4 0 0 1 1.6-1.6l1.6-.5a11 11 0 0 1 2.2-.2h.5Zm3 4.1v-.7c-.1-.3-.3-.5-.6-.7-.2-.2-.5-.4-1-.5-.4-.2-1-.2-1.6-.2-.7 0-1.3 0-1.8.2-.4 0-.7.3-1 .5-.2.2-.4.4-.4.7l-.2.7v.1c0 .3 0 .5.2.8 0 .2.2.5.5.7.2.2.5.4 1 .5.4.2 1 .3 1.7.3.6 0 1.2-.1 1.6-.3.5-.1.8-.3 1-.5.3-.2.4-.4.5-.7l.2-.7v-.2ZM65.7 58.8l-4.3-5h3.1l2.6 3 2.6-3h2.9l-4.3 5V62h-2.6v-3.2ZM35.4 66.8v1.9h-5.9v1.2h5.8v1.9h-5.8V75H27v-8.2h8.4ZM39 70.3h4c.3 0 .6-.1.8-.3l.2-.5c0-.2 0-.4-.2-.6l-.8-.2h-4v1.6Zm0 4.7h-2.5v-8.2h6.6c.7 0 1.3 0 1.7.2.5 0 .8.2 1.1.4l.6.7.2.8v.2c0 .3 0 .5-.2.7a1.8 1.8 0 0 1-.9.9l-.4.2.6.2.4.4.4.5.1.7v1.9c0 .2.1.3.2.3v.1h-2.6l-.1-.2v-1.3c0-.5-.2-.8-.5-1-.2-.3-.6-.4-1.3-.4h-3.3V75ZM50.3 75h-2.6v-8.2h2.6V75ZM60.2 66.8v1.9H54v1.2h6v1.9h-6V73h6.2V75h-8.8v-8.2h8.7ZM64.2 66.8l5.2 5.2v-5.2H72V75h-2.5L64 69.6V75h-2.6v-8.2h2.9ZM73.2 66.8h5.4a11.4 11.4 0 0 1 3.6.6c.4.2.8.4 1 .7.4.2.6.5.7.8l.4.9V72l-.3.8-.7.9a4 4 0 0 1-1 .7l-1.6.4-2 .2h-5.5v-8.2Zm2.6 6.2h2.6c.7 0 1.3 0 1.8-.2l1-.5.4-.7.1-.7v-.7l-.5-.7-1-.5c-.5-.2-1-.2-1.8-.2h-2.6V73ZM52.8 79.8v1.9h-6v1.2h5.8v1.9H47V88h-2.6v-8.2h8.5ZM56.4 88H54v-8.2h2.5V88ZM60.9 81.8h-3.5v-2H67v2h-3.5V88h-2.6v-6.2Z"/><defs><clipPath id="a"><path fill="#fff" d="M66 22H45v23h21z"/></clipPath></defs></svg>