<svg xmlns="http://www.w3.org/2000/svg" width="110" height="110" fill="none"><circle cx="55" cy="55" r="55" fill="#000"/><path fill="#fff" d="m61.8 7-1.6 8.6 8 1.5-.5 2.8-11.5-2.1 2.1-11.5 3.5.7ZM71.2 22l-3.3-1.5 4.7-10.7 3.3 1.5L71.2 22ZM80.2 12.7l3.9 3.5-1.8 8.1 7.8-2.7 3.7 3.3-7.8 8.6-2.7-2.4 5.4-6-8.8 3-1.5-1.3 2-9.1-5.4 6-2.6-2.3 7.8-8.7ZM87.4 38l-1.8-3.2 10-5.8 1.8 3.2-10 5.8ZM98 40.4l-1.4-4.8 2.7-.8L103 48l-2.7.8L99 44l-8.6 2.4-1-3.5 8.6-2.5ZM102.4 64.6l-2.6-.2.7-8.6-1.7-.1L98 64l-2.7-.2.7-8.4-1.9-.1-.7 8.7-2.7-.2 1-12.4 11.6.9-.9 12.3ZM101.3 69.4l-3.5 6.9-1.5 2.5-1.5 1.7c-.5.5-1 .7-1.5.9a4 4 0 0 1-1.5.3l-1.4-.1-1.2-.5-.4-.1-1.1-.7c-.4-.3-.7-.6-.9-1-.3-.4-.5-.9-.6-1.4-.2-.5-.2-1.1-.2-1.8s.2-1.4.4-2.2c.2-.8.6-1.7 1.1-2.8l3.5-6.9 10.3 5.2Zm-9.5-.7L90 72.1a7 7 0 0 0-.8 2.3c-.1.6-.1 1.2 0 1.6.1.4.3.8.6 1l.8.6h.1l.9.3c.4.1.7 0 1.2-.1s.9-.5 1.3-.9c.5-.5.9-1.2 1.4-2.1l1.7-3.4-5.4-2.7ZM76.9 97.8l-1.5-2.2 7.2-4.9-1-1.4-7 4.8-1.5-2.2 7-4.8-1.1-1.6-7.3 5-1.5-2.2 10.3-7 6.6 9.6-10.2 6.9ZM72.4 100l-7.6 1.6c-1.1.2-2.1.4-2.9.4-.9 0-1.6 0-2.3-.2-.7-.1-1.2-.3-1.7-.6l-1.2-.9c-.4-.3-.6-.7-.7-1.1a5 5 0 0 1-.4-1.3l-.1-.5-.1-1.3.2-1.4c.1-.5.4-.9.7-1.4a4 4 0 0 1 1.3-1.3c.5-.4 1.2-.8 2-1.1.8-.3 1.7-.6 2.9-.8l7.6-1.6 2.3 11.5ZM67 92.1l-3.7.8c-1 .2-1.8.5-2.4.8-.6.3-1 .7-1.2 1-.3.4-.4.7-.4 1.1l.1 1v.1l.3.9c.2.3.4.6.8.8.4.2.9.4 1.5.4s1.5 0 2.5-.2l3.7-.8-1.2-5.9ZM50.5 90.8l3.6.3-.8 11.6-3.6-.3.8-11.6ZM42.5 98.2l4.8 1.6-.9 2.6-13-4.3.9-2.6L39 97l2.8-8.4 3.5 1.2-2.8 8.4ZM33.9 84.3l3.1 2-6.3 9.8-3.1-2 6.3-9.8ZM18.3 85.9a12.2 12.2 0 0 1-2.7-4.8c-.2-.7-.2-1.3-.1-1.8l.4-1.5.7-1.1.8-.8.4-.3.9-.7 1.2-.5 1.5-.2c.6 0 1.1.1 1.8.4.6.2 1.3.6 2 1.2.7.5 1.5 1.3 2.3 2.2l.4.5c.8.9 1.4 1.8 1.9 2.6l.9 2.2c.2.7.2 1.3.1 1.8l-.4 1.5-.7 1.1-.8.8-.4.3-.9.7-1.2.5a6 6 0 0 1-1.5.2c-.5 0-1.1-.2-1.8-.4a15 15 0 0 1-2-1.2c-.7-.5-1.5-1.3-2.3-2.2l-.5-.5Zm1.5-7.1-.7.8c-.2.3-.3.7-.3 1.2s.1 1 .4 1.6a9.6 9.6 0 0 0 3.1 3.6l1.5.6c.4.1.8 0 1.2-.1.4-.1.6-.3.9-.6l.1-.1.7-.8c.2-.3.3-.7.3-1.2s-.1-1-.4-1.6c-.2-.6-.7-1.3-1.3-2A5.8 5.8 0 0 0 22 78c-.5-.1-.9 0-1.2.1-.4.1-.7.3-.9.6l-.1.1ZM9.7 71.1l5-9.2-7 2-1-3.5 11.2-3.2 1 3.5-5.3 9.7 7.4-2.1 1 3.5L10.8 75l-1.1-3.9ZM17.9 52.9l-1.3-.3-.9-.3a4 4 0 0 1-.9-.5l-.9-.8c-.3-.3-.5-.7-.7-1.2l-.5-1.7c-.2-.6-.1-1.5-.1-2.4l.1-2.8v-1l-.1-.6-.2-.3-.2-.1h-.3l-.4.3-.4.8-.4 1.5c-.2.7-.3 1.3-.2 1.7l.2 1c.1.3.3.4.4.5l.5.2-.9 3.7h-.1c-.2-.1-.5-.1-.7-.3l-.8-.5c-.3-.2-.5-.5-.7-.9l-.5-1.3c-.1-.5-.2-1.2-.1-1.9 0-.7.2-1.6.4-2.6l.1-.6c.3-1.3.7-2.4 1.1-3.2.4-.8.8-1.4 1.3-1.8.4-.4.9-.6 1.4-.7.5-.1.9 0 1.4.1l1.1.4c.3.2.6.5.8.9l.4 1.5v2.4l-.2 3.2V47l.2 1 .3.5.3.2 1.7-7.2-1.5-.4.8-3.5 4.1 1-3.6 14.3ZM26.3 22.8l.8.8.8 1.1.5 1.4v1.8a7 7 0 0 1-.7 2.2l-1.6 2.6-.4.6a15 15 0 0 1-2 2.2 6 6 0 0 1-1.9 1.2c-.6.3-1.2.4-1.7.5-.5.1-1 0-1.5-.1l-1.3-.4-1-.6-.4-.3-.9-.8-.8-1.1-.5-1.4v-1.8c.1-.7.3-1.4.7-2.1.4-.8.9-1.6 1.6-2.5l.4-.6a15 15 0 0 1 2-2.2 6 6 0 0 1 1.9-1.2c.6-.3 1.2-.4 1.7-.5l1.5.1 1.3.4 1 .6.5.1Zm-2.6 2.8-.9-.5-1.2-.1-1.4.6a10 10 0 0 0-2.6 3.5c-.2.6-.3 1.1-.2 1.5 0 .4.2.8.4 1.1l.7.8.2.1 1 .5 1.2.1 1.4-.6c.5-.3 1-.9 1.6-1.6l1.1-1.9c.2-.6.2-1.1.2-1.5l-.4-1.1-.7-.8-.4-.1ZM30.4 26.8l-.7-1.1-.4-.8-.3-1v-1.2c0-.4.2-.9.4-1.3l.9-1.5 1.6-1.7 2.1-1.9.7-.7c.2-.2.3-.3.3-.5l.1-.3-.1-.3-.2-.2h-.5l-.9.3-1.4.7-1.4 1-.6.9-.1.7.2.5-3.3 1.9-.1-.1-.3-.7-.2-.9.1-1.1.6-1.3c.3-.5.7-.9 1.3-1.4.5-.5 1.2-1 2.1-1.5l.5-.3c1.2-.7 2.2-1.2 3-1.4.8-.3 1.6-.4 2.1-.3.5.1 1.1.2 1.4.5.4.3.7.6.9 1l.5 1.1c.1.4.1.8-.1 1.2a3 3 0 0 1-.8 1.3l-1.7 1.7-2.3 1.9-1.2 1.2-.6.8-.2.5.1.3 6.4-3.7-.8-1.3 3.1-1.8 2.2 3.7-12.4 7.1ZM41 13.1l-.6-2.1 1.2-.5.8-.7.6-.8.3-.9 2.7-.8 2.8 11.3-3.5.9-1.7-7-2.6.6Z"/></svg>