<svg xmlns="http://www.w3.org/2000/svg" width="110" height="110" fill="none"><circle cx="55" cy="55" r="55" fill="#DB007D"/><path fill="#fff" d="m55.6 10 .3-2.2c.5 0 1 0 1.4-.1a3.58 3.58 0 0 0 2.5-1.8l2.9.3-1.3 11.9-3.7-.4.8-7.4-2.9-.3ZM79.8 19.2c-.1.3-.3.7-.6 1-.2.4-.6.7-.9 1-.4.3-.8.6-1.3.8-.5.2-1.1.4-1.8.4s-1.5 0-2.3-.2c-.9-.2-1.8-.5-2.9-1l-.7-.2c-1.1-.5-2-1-2.7-1.6-.7-.5-1.2-1.1-1.7-1.6-.4-.5-.7-1.1-.9-1.6-.2-.5-.2-1.1-.2-1.5 0-.5.1-.9.2-1.4.1-.4.2-.8.4-1.1l.2-.4c.1-.3.3-.7.6-1 .2-.4.5-.7.9-1 .4-.3.8-.6 1.3-.8.5-.2 1.1-.3 1.8-.4.7 0 1.4 0 2.3.2.9.2 1.8.5 2.9 1l.6.3c1.1.5 2 1 2.7 1.5.7.5 1.3 1.1 1.7 1.6.4.5.7 1.1.9 1.6.2.5.2 1 .2 1.5s-.1.9-.2 1.4c-.1.4-.2.8-.4 1.1l-.1.4Zm-3.4-1.9.3-1c0-.4 0-.8-.2-1.2-.2-.4-.5-.8-.9-1.3-.4-.4-1.1-.8-1.9-1.2-.8-.4-1.6-.6-2.2-.7-.6-.1-1.1 0-1.6.1-.4.1-.8.3-1 .6-.3.3-.5.6-.6.9l-.1.2c-.1.3-.2.7-.3 1.1 0 .4 0 .8.2 1.2.2.4.5.9.9 1.3s1.1.8 1.9 1.2c.8.4 1.6.6 2.2.7.6.1 1.1 0 1.6-.1.4-.1.8-.4 1.1-.7.3-.3.5-.6.6-.9v-.2ZM92.6 33.6c-.3.2-.6.4-1 .7-.4.2-.8.4-1.3.5-.5.1-1 .2-1.5.2-.6 0-1.2-.1-1.8-.4-.6-.2-1.3-.6-2-1.2-.7-.5-1.4-1.3-2.2-2.2l-.5-.5a11.08 11.08 0 0 1-2.5-4.7c-.1-.7-.2-1.3-.1-1.8.1-.6.2-1.1.4-1.5.2-.4.5-.8.7-1.2l.8-.8.4-.3c.3-.2.6-.5 1-.7.4-.2.8-.4 1.3-.5.5-.1 1-.2 1.5-.2.6 0 1.2.2 1.8.4.6.2 1.3.6 2 1.2.7.5 1.4 1.3 2.2 2.2l.5.5c.8.9 1.3 1.7 1.8 2.5.4.8.7 1.5.8 2.2.1.7.2 1.3.1 1.8-.1.6-.2 1-.4 1.5-.2.4-.5.8-.7 1.2l-.8.8-.5.3Zm-2.3-3.2c.3-.2.5-.5.7-.8.2-.3.3-.7.3-1.2s-.1-1-.3-1.5c-.2-.6-.6-1.2-1.2-1.9s-1.2-1.2-1.7-1.6c-.5-.3-1-.5-1.5-.6-.4-.1-.9 0-1.2.1-.4.1-.7.3-.9.5l-.1.1c-.3.2-.5.5-.7.8-.2.3-.3.7-.4 1.2 0 .5.1 1 .3 1.6.2.6.6 1.2 1.2 1.9a5.73 5.73 0 0 0 3.2 2.1c.5.1.9 0 1.2-.1.4-.1.7-.3 1-.5l.1-.1ZM104.1 53.2 89.8 42.9l-.6-3.1 14.3 10.3.6 3.1Zm-12.3.4c-.2-.9-.2-1.7-.1-2.4.1-.6.3-1.1.6-1.5.3-.4.6-.7 1-.9.4-.2.7-.3 1-.4l.3-.1c.3-.1.6-.1 1 0 .4 0 .8.2 1.2.4.4.3.8.7 1.1 1.2.3.5.6 1.3.8 2.2l.1.4c.2.9.2 1.7.1 2.4-.1.6-.3 1.1-.6 1.5-.3.4-.6.7-.9.8-.4.2-.7.3-1 .4l-.3.1c-.3.1-.6.1-1 0-.4 0-.8-.2-1.2-.4-.4-.2-.8-.6-1.1-1.2-.4-.5-.6-1.3-.8-2.2l-.2-.3Zm2-.2c.1.4.2.7.3 1 .1.3.3.4.5.6.2.1.3.2.5.3h.6c.2 0 .3-.1.5-.2s.3-.2.4-.4c.1-.2.2-.4.2-.7 0-.3 0-.6-.1-1s-.2-.7-.3-1c-.1-.3-.3-.4-.4-.6-.2-.1-.3-.2-.5-.3h-.6c-.2 0-.4.1-.5.2-.2.1-.3.3-.4.4-.1.2-.2.4-.2.7-.1.2-.1.6 0 1Zm.8-13c-.2-1-.2-1.8-.1-2.4.1-.6.3-1.1.6-1.5.3-.4.6-.7 1-.8.4-.2.7-.3 1-.4l.3-.1c.3-.1.6-.1 1 0 .4 0 .8.2 1.2.4.4.3.8.6 1.1 1.2.3.5.6 1.3.8 2.2l.1.4c.2 1 .2 1.8.1 2.4-.1.6-.3 1.1-.6 1.5-.3.4-.6.7-.9.8-.4.2-.7.3-1 .4l-.3.1c-.2 0-.4.1-.7.1-.2 0-.5 0-.8-.1-.3-.1-.5-.2-.8-.3-.3-.2-.5-.4-.8-.7-.2-.3-.5-.7-.7-1.1-.2-.4-.4-1-.5-1.6v-.5Zm2-.2c.1.4.2.7.3 1 .1.3.3.4.5.6.2.1.3.2.5.3h.6c.2 0 .4-.1.5-.2.2-.1.3-.2.4-.4.1-.2.2-.4.2-.7 0-.3 0-.6-.1-1s-.2-.7-.3-1c-.1-.2-.3-.4-.4-.6-.2-.1-.3-.2-.5-.3h-.7c-.2 0-.3.1-.5.2s-.3.2-.4.4c-.1.2-.2.4-.2.7 0 .3 0 .6.1 1ZM89.8 66.7l1.5-3.4 11 4.8-3.8 8.9c-.4.9-.8 1.6-1.2 2.2-.4.5-.8.9-1.3 1.2-.4.3-.8.4-1.2.4-.4 0-.8-.1-1.2-.3l-.2-.1c-.4-.2-.7-.4-.9-.7-.2-.3-.4-.5-.5-.8-.1-.3-.2-.6-.2-.9v-.7c-.2.2-.4.5-.7.7a3 3 0 0 1-.8.4c-.3.1-.6.1-.9.1-.3 0-.7-.1-1-.2l-1.6-.7c-.4-.2-.8-.3-1-.3h-.6l1.5-3.5h.3c.1 0 .3.1.5.1l1.3.6c.7.3 1.2.3 1.7.1.5-.2.9-.7 1.2-1.6l2-4.5-3.9-1.8Zm6.4 2.8-2.3 5.2c-.2.5-.3.9-.2 1.2.1.3.3.5.6.7.3.1.6.1.9 0 .3-.1.6-.4.8-.9l2.3-5.2-2.1-1ZM84.2 94.7l-1.9-1.9 6.4-6.3-1.2-1.3-6.2 6.1-1.9-2 6.2-6.1-1.4-1.4-6.5 6.4-2-2 9.1-9 8.4 8.5-9 9ZM68.3 89.5c1.1-.4 2-.7 2.9-.9.9-.1 1.6-.2 2.3-.1.7.1 1.3.2 1.8.5.5.2.9.5 1.3.9.4.3.7.7.9 1.1.2.4.4.7.5 1.1l.2.4c.1.3.3.7.4 1.2.1.4.1.9.1 1.4 0 .5-.1 1-.3 1.5-.2.5-.5 1-.9 1.6a11.3 11.3 0 0 1-4.4 2.9l-.6.2c-1.1.4-2 .7-2.9.9-.8.2-1.6.2-2.3.2-.7 0-1.2-.1-1.7-.3-.5-.2-.9-.4-1.2-.6-.3-.2-.6-.5-.8-.8-.2-.3-.3-.5-.4-.7l-.2-.3 3.7-1.5c0 .1.2.2.3.3.2.2.5.3.8.4.4.1.9.1 1.4.1.6 0 1.3-.3 2.2-.6a5.6 5.6 0 0 0 2.9-2.3c.2-.4.3-.8.3-1.2 0-.4-.1-.8-.2-1.1l-.1-.2c-.1-.3-.3-.6-.6-1-.3-.3-.6-.5-1.1-.7-.5-.2-1-.2-1.6-.2-.6 0-1.3.2-2.1.5-.9.4-1.6.7-2 1.1-.5.4-.8.8-1 1.1-.2.3-.3.6-.3.9v.5l-3.7 1.5.1-.1a2 2 0 0 1-.2-.9c-.1-.3 0-.7 0-1.1.1-.4.2-.9.4-1.3.2-.5.6-.9 1-1.4.5-.5 1-1 1.8-1.4.7-.5 1.6-.9 2.7-1.4l.6-.2ZM55.7 97.2l6.3 7.5-4.7-.1-3.7-4.5-3.9 4.4-4.2-.1 6.4-7.2.1-4.6 3.8.1-.1 4.5ZM40.4 89.7a11.28 11.28 0 0 1 4.4 2.9c.4.5.7 1.1.9 1.6.2.5.3 1 .3 1.5s0 1-.1 1.4c-.1.4-.2.8-.3 1.1l-.2.4c-.1.3-.3.7-.5 1.1-.2.4-.5.7-.9 1.1-.3.3-.8.6-1.3.9-.5.2-1.1.4-1.7.5-.7.1-1.4 0-2.3-.1-.9-.1-1.8-.4-2.9-.9l-.6-.2c-1.1-.4-2-.9-2.7-1.4-.7-.5-1.3-.9-1.8-1.4-.4-.5-.8-.9-1-1.4-.2-.5-.4-.9-.4-1.3-.1-.4-.1-.8 0-1.1.1-.3.1-.6.2-.8l.1-.2 3.7 1.5v.5c0 .2.1.5.3.9.2.3.5.7 1 1.1.5.4 1.1.7 2 1.1.8.3 1.6.5 2.2.6.6 0 1.1 0 1.5-.2.4-.2.7-.4 1-.7.3-.3.5-.6.6-1l.1-.2c.1-.3.2-.7.2-1.1 0-.4-.1-.8-.3-1.3-.2-.4-.5-.8-1-1.3-.5-.4-1.1-.8-1.9-1.1-.9-.4-1.6-.6-2.2-.6-.6 0-1.1 0-1.5.1-.4.1-.6.3-.8.5l-.3.3-3.7-1.5.1-.2c.1-.2.2-.5.4-.8.2-.3.5-.6.8-.8.3-.3.7-.5 1.2-.7.5-.2 1-.3 1.7-.3s1.4 0 2.3.2c.8.2 1.8.4 2.9.9l.5.4ZM21.1 92l6.3-6.5-6-5.8 2.1-2.1 8.7 8.4-8.3 8.6-2.8-2.6ZM6.8 71.1l2.4-1.2 3.9 8 1.6-.8-3.8-7.8 2.5-1.2 3.8 7.8L19 75l-4-8.2 2.5-1.2 5.6 11.5-10.8 5.3-5.5-11.3ZM5.1 65.8l-.5-7.9a14 14 0 0 1 .1-3c.1-.9.3-1.7.5-2.3.2-.6.5-1.2.9-1.6.3-.4.7-.8 1.1-1 .4-.3.8-.5 1.3-.6.4-.1.9-.2 1.3-.2h.5c.4 0 .9 0 1.3.1s.9.2 1.4.4a5.08 5.08 0 0 1 2.4 2.4c.3.6.6 1.3.8 2.2.2.9.4 1.9.4 3l.5 8-12 .5Zm8.9-4.2-.2-3.9a7.3 7.3 0 0 0-.5-2.5c-.2-.6-.5-1.1-.9-1.4-.3-.3-.7-.5-1-.6-.4-.2-.7-.2-1-.2h-.1c-.3 0-.6.1-1 .2s-.7.4-1 .7c-.3.4-.5.9-.7 1.5-.1.7-.2 1.6-.1 2.6l.2 3.9 6.3-.3ZM15.8 38.7l3.5 1.8-1.7 3.3-10.7-5.4 4.2-8c.5-1 1-1.7 1.5-2.2.5-.5 1-.9 1.5-1.1.5-.2 1-.3 1.5-.2.5.1 1 .2 1.5.5l.1.1c.5.2.9.6 1.2.9.3.4.6.8.7 1.4.1.5.1 1.2 0 1.9s-.5 1.6-1 2.5l-2.3 4.5Zm-2.4-1.2 2.4-4.6c.3-.5.4-1 .3-1.3a1.24 1.24 0 0 0-1.6-.9c-.3.1-.6.5-.9 1l-2.4 4.6 2.2 1.2ZM28.3 27.7l-12.5-5.1 3.3-2.7 9.1 3.9-2.5-9.4 3-2.5L32 24.8l-3.7 2.9ZM42.8 19.5c-1.1.3-2.1.5-3 .6-.9.1-1.6 0-2.3-.1-.7-.1-1.2-.4-1.7-.6a4 4 0 0 1-1.2-1c-.3-.4-.6-.7-.8-1.1-.2-.4-.4-.8-.5-1.1l-.1-.4c-.1-.3-.2-.7-.3-1.2-.1-.4-.1-.9 0-1.4.1-.5.2-1 .4-1.5s.6-1 1.1-1.5c.5-.5 1.1-.9 1.9-1.4.8-.4 1.7-.8 2.9-1.2l.6-.2c1.1-.3 2.1-.6 3-.6.9-.1 1.6-.1 2.3 0 .6.1 1.2.2 1.7.5.5.2.8.5 1.1.7.3.3.5.6.7.8.2.3.3.5.4.8l.1.2-3.8 1.2c0-.1-.1-.2-.3-.4-.2-.2-.4-.3-.8-.5-.4-.1-.8-.2-1.4-.2-.6 0-1.3.1-2.3.4-.9.3-1.5.6-2 .9-.5.3-.9.7-1.1 1.1-.2.4-.3.8-.4 1.2 0 .4 0 .8.2 1.1l.1.2c.1.3.3.7.5 1 .2.3.6.6 1 .8.4.2.9.3 1.5.4.6 0 1.3-.1 2.2-.3.9-.3 1.6-.6 2.1-1s.8-.7 1.1-1c.2-.3.3-.6.3-.9v-.5l3.8-1.2.1.2c.1.2.1.5.1.9s0 .7-.1 1.1c-.1.4-.3.8-.5 1.3-.3.4-.6.9-1.1 1.3-.5.4-1.1.9-1.9 1.3-.8.4-1.7.8-2.8 1.1l-.8.2Z"/><g stroke="#fff" stroke-linecap="round" stroke-miterlimit="10" stroke-width="2" clip-path="url(#a)"><path d="M44.43 61.3H54.5v8H45.7c-1.47-.04-2.46-1.2-3.03-2.05"/><path d="M42.68 67.25c-.56-.85-3.84-6.86-4.52-7.89a3.32 3.32 0 0 1-.1-3.11l2.56-4.33-1.27-.74 6.78-.83 2.68 6.3-1.27-.74-4.61 8c-.55.95-.89 2.44-.25 3.34ZM65.64 61.3l-5.03-8.7 6.93-4 4.39 7.6c.7 1.28.2 2.72-.26 3.64"/><path d="M71.67 59.84c-.46.91-4.02 6.76-4.57 7.86a3.32 3.32 0 0 1-2.65 1.64l-5.02-.04v1.46L55.3 65.3l4.12-5.46v1.46h9.23c1.1 0 2.56-.46 3.01-1.46ZM59.85 38.47a3.32 3.32 0 0 1 2.75 1.47l2.47 4.38 1.27-.73-2.67 6.29-6.79-.83 1.27-.73-3.1-5.38"/><path d="M50.76 38.44c-1.02.06-2.52.34-3.29 1.6l-4.38 7.6 6.92 4 6.44-11.16a4.12 4.12 0 0 1 3.4-2.01c-1.52.03-5.08-.02-9.1-.03Z"/></g><defs><clipPath id="a"><path fill="#fff" d="M37 37h36v36H37z"/></clipPath></defs></svg>